<svg width="14" height="10" viewBox="0 0 14 10" fill="none" xmlns="http://www.w3.org/2000/svg">
<path d="M5.57608 9.27956C5.44481 9.27983 5.31478 9.25417 5.19346 9.20406C5.07213 9.15395 4.9619 9.08038 4.86908 8.98756L0.627076 4.74456C0.531503 4.65238 0.455244 4.54209 0.402751 4.42013C0.350257 4.29816 0.32258 4.16696 0.321333 4.03418C0.320086 3.9014 0.345295 3.76971 0.395489 3.64678C0.445683 3.52385 0.519857 3.41214 0.613682 3.31819C0.707508 3.22423 0.819106 3.1499 0.941965 3.09953C1.06482 3.04916 1.19649 3.02377 1.32926 3.02482C1.46204 3.02588 1.59328 3.05337 1.71532 3.1057C1.83736 3.15802 1.94776 3.23412 2.04008 3.32956L5.57508 6.86456L11.9401 0.501562C12.1276 0.313921 12.382 0.208453 12.6472 0.208359C12.9125 0.208265 13.1669 0.313553 13.3546 0.501061C13.5422 0.68857 13.6477 0.942938 13.6478 1.20821C13.6479 1.47348 13.5426 1.72792 13.3551 1.91556L6.28308 8.98756C6.19025 9.08038 6.08002 9.15395 5.95869 9.20406C5.83737 9.25417 5.70734 9.27983 5.57608 9.27956Z" fill="#2FAB73"/>
</svg>
